HIERARCHY
ROOT ui
{
	 OFFSET 0 0 0
	 CHANNELS 3 XPosition YPosition Z Position
	 EndSite
	 {
	 OFFSET 0 -1 0
	 }
}
ROOT li
{
	 OFFSET 0 0 0
	 CHANNELS 3 XPosition YPosition Z Position
	 EndSite
	 {
	 OFFSET 0 -1 0
	 }
}
ROOT ul
{
	 OFFSET 0 0 0
	 CHANNELS 3 XPosition YPosition Z Position
	 EndSite
	 {
	 OFFSET 0 -1 0
	 }
}
ROOT ll
{
	 OFFSET 0 0 0
	 CHANNELS 3 XPosition YPosition Z Position
	 EndSite
	 {
	 OFFSET 0 -1 0
	 }
}
ROOT tt
{
	 OFFSET 0 0 0
	 CHANNELS 3 XPosition YPosition Z Position
	 EndSite
	 {
	 OFFSET 0 -1 0
	 }
}
ROOT tb
{
	 OFFSET 0 0 0
	 CHANNELS 3 XPosition YPosition Z Position
	 EndSite
	 {
	 OFFSET 0 -1 0
	 }
}
ROOT td
{
	 OFFSET 0 0 0
	 CHANNELS 3 XPosition YPosition Z Position
	 EndSite
	 {
	 OFFSET 0 -1 0
	 }
}
ROOT v
{
	 OFFSET 0 0 0
	 CHANNELS 3 XPosition YPosition Z Position
	 EndSite
	 {
	 OFFSET 0 -1 0
	 }
}
ROOT bn
{
	 OFFSET 0 0 0
	 CHANNELS 3 XPosition YPosition Z Position
	 EndSite
	 {
	 OFFSET 0 -1 0
	 }
}
MOTION
Frames: 29
Frame Time: 0.002
0.001448093056678772	-5.384640097618103E-4	0		0.4063972778320312	-2.4547275390625	0		-0.96727734375	0.24161868286132812	0		-0.7909264526367188	-2.700361083984375	0		1.363231201171875	-0.7967945556640625	0		3.22433251953125	-0.7826956176757812	0		4.5068974609375	-0.4534482116699219	0		5.55739111328125	0.16190562438964845	0		-0.19599510192871095	5.931595703125	0		
-0.0027284190654754637	0.011909046173095704	0		0.4019842834472656	-2.443318115234375	0		-0.8895079956054688	0.23971363830566406	0		-0.76239013671875	-2.694017578125	0		1.3589417724609374	-0.7914751586914063	0		3.210947265625	-0.79550244140625	0		4.4976328125	-0.45237884521484373	0		5.5541162109375	0.1528249053955078	0		-0.16263528442382813	5.93986181640625	0		
-0.005970115184783935	0.007353020191192627	0		0.42650021362304685	-2.4510654296875	0		-0.90372314453125	0.2362995910644531	0		-0.7668912963867187	-2.700498291015625	0		1.344692626953125	-0.7840958251953125	0		3.205697509765625	-0.7883427124023438	0		4.4924287109375	-0.44531887817382815	0		5.5549091796875	0.15173658752441407	0		-0.1613107452392578	5.93929833984375	0		
-1.9349700212478637E-4	0.002755491018295288	0		0.38914398193359373	-2.4404609375	0		-0.90290380859375	0.23580935668945313	0		-0.7293434448242188	-2.70320751953125	0		1.4083927001953125	-0.7901372680664063	0		3.2154091796875	-0.7922467041015625	0		4.49915576171875	-0.4543020935058594	0		5.55068212890625	0.1437032470703125	0		-0.15998704528808594	5.9387421875	0		
-0.00837575912475586	0.0032503631114959718	0		0.4256754150390625	-2.454254150390625	0		-0.9730938110351562	0.2317325439453125	0		-0.8037301635742188	-2.698276611328125	0		1.3461671142578124	-0.78545458984375	0		3.221239013671875	-0.7781027221679687	0		4.4959306640625	-0.45719818115234373	0		5.5505908203125	0.15768429565429687	0		-0.15867446899414062	5.93819970703125	0		
-0.003538322925567627	0.00569011116027832	0		0.3823059997558594	-2.453572509765625	0		-0.9632094116210937	0.23922041320800783	0		-0.8011140747070312	-2.69676171875	0		1.352964599609375	-0.7791345825195313	0		3.22396826171875	-0.7839091186523437	0		4.50477197265625	-0.4501250915527344	0		5.55737744140625	0.14866900634765626	0		-0.19042030334472657	5.93086474609375	0		
0.0022630419731140138	0.0011453700065612792	0		0.42200967407226564	-2.443344970703125	0		-0.9003914794921875	0.23441517639160156	0		-0.7984805297851563	-2.695229248046875	0		1.3567537841796875	-0.7757695922851563	0		3.2407275390625	-0.7857603759765625	0		4.492580078125	-0.4498883056640625	0		5.558212890625	0.14773594665527343	0		-0.1561104736328125	5.93717041015625	0		
-0.001887568950653076	0.004683288097381591	0		0.39167013549804686	-2.442682861328125	0		-0.8945731201171875	0.22995759582519532	0		-0.7268985595703125	-2.70508349609375	0		1.4204884033203125	-0.7827280883789063	0		3.225504150390625	-0.7853848266601563	0		4.50637841796875	-0.45175787353515623	0		5.55400732421875	0.13988389587402345	0		-0.15486203002929688	5.93768994140625	0		
-0.005081055164337159	0.0012422749996185303	0		0.419303955078125	-2.448334716796875	0		-0.9747086791992188	0.23403453063964844	0		-0.8032322998046875	-2.70204150390625	0		1.3493101806640626	-0.7748565063476562	0		3.22627685546875	-0.7860610961914063	0		4.48823681640625	-0.4433915710449219	0		5.54988232421875	0.1460849609375	0		-0.15365524291992189	5.93623486328125	0		
0.00473284101486206	-2.49331995844841E-4	0		0.4029569702148437	-2.4516953125	0		-0.8929000244140625	0.22916789245605468	0		-0.762583740234375	-2.70367138671875	0		1.3500830078125	-0.7753764038085937	0		3.242982177734375	-0.7977916870117188	0		4.490978515625	-0.4541025085449219	0		5.55071142578125	0.14530902099609375	0		-0.22055056762695313	5.923216796875	0		
0.005546514987945557	-6.591590046882629E-4	0		0.41660699462890627	-2.456206787109375	0		-0.9590233764648437	0.2372166748046875	0		-0.7938680419921875	-2.694843017578125	0		1.35984033203125	-0.777917236328125	0		3.240933349609375	-0.7683674926757813	0		4.4958115234375	-0.4487799072265625	0		5.56558203125	0.15249925231933595	0		-0.14933525085449217	5.9333935546875	0		
0.00936931800842285	0.0019411989450454712	0		0.436318603515625	-2.450726318359375	0		-0.8812139892578125	0.23541355895996094	0		-0.7182376098632812	-2.700642333984375	0		1.4146580810546876	-0.7697014770507813	0		3.2415869140625	-0.786918701171875	0		4.5076611328125	-0.4394547424316406	0		5.56234521484375	0.14384999084472655	0		-0.219272216796875	5.92445654296875	0		
0.0021667699813842775	0.0026385159492492674	0		0.3950284423828125	-2.444839599609375	0		-0.9714283447265625	0.23266786193847655	0		-0.80953271484375	-2.69339013671875	0		1.3474068603515625	-0.7707011108398437	0		3.223426513671875	-0.7733106079101563	0		4.4954384765625	-0.43993536376953124	0		5.55810009765625	0.13625901794433593	0		-0.14912652587890626	5.9346884765625	0		
0.0029387140274047853	0.0023160018920898437	0		0.4336224365234375	-2.456416015625	0		-0.894647705078125	0.23191488647460937	0		-0.7229631958007813	-2.707212158203125	0		1.4131307373046875	-0.7734884033203125	0		3.246107666015625	-0.7829130859375	0		4.496197265625	-0.44044845581054687	0		5.56392138671875	0.1426585693359375	0		-0.14809124755859376	5.93437255859375	0		
0.008659324645996093	-0.002008855104446411	0		0.4132200927734375	-2.464594970703125	0		-0.9698912353515625	0.23213395690917968	0		-0.79729296875	-2.70200634765625	0		1.4029210205078124	-0.7617696533203125	0		3.237953857421875	-0.7622803955078125	0		4.51186865234375	-0.4510076904296875	0		5.5696162109375	0.13311129760742188	0		-0.1461143798828125	5.93307861328125	0		
0.004396076202392578	0.0017571580410003663	0		0.4458621826171875	-2.46207666015625	0		-0.8881983032226562	0.22739242553710937	0		-0.7946650390625	-2.700255859375	0		1.35558740234375	-0.7647818603515625	0		3.23756884765625	-0.7736541748046875	0		4.50167041015625	-0.435357177734375	0		5.56538916015625	0.1416793670654297	0		-0.14618548583984375	5.9338251953125	0		
0.009089127540588379	0.005493914127349854	0		0.41152978515625	-2.450106689453125	0		-0.9584967041015625	0.23163253784179688	0		-0.7920690307617188	-2.6984814453125	0		1.4102935791015625	-0.7554044189453125	0		3.2522880859375	-0.7620819702148437	0		4.5023291015625	-0.4357292175292969	0		5.5660615234375	0.1412678527832031	0		-0.14433876037597657	5.93258544921875	0		
0.010650986671447754	-0.002723952054977417	0		0.43603091430664065	-2.45748193359375	0		-0.8918790893554688	0.23102691650390625	0		-0.7575748291015625	-2.7058876953125	0		1.4108857421875	-0.755654052734375	0		3.2428359375	-0.7693178100585938	0		4.50293408203125	-0.4360573425292969	0		5.56667822265625	0.14090542602539063	0		-0.14455876159667969	5.933384765625	0		
-0.04877075576782226	0.0024722559452056885	0		0.39858969116210935	-2.4464365234375	0		-0.9673269653320312	0.2313465576171875	0		-0.7570928955078124	-2.706056884765625	0		1.539378662109375	-0.7616917114257813	0		3.2204208984375	-0.7604336547851562	0		4.49047900390625	-0.43526171875	0		5.5672265625	0.14058848571777344	0		-0.17890618896484375	5.9284248046875	0		
0.006688232898712158	9.564570188522339E-4	0		0.4089558715820312	-2.454672607421875	0		-0.8858831787109375	0.2266824951171875	0		-0.794660400390625	-2.70296240234375	0		1.348904296875	-0.74966259765625	0		3.216776123046875	-0.77563623046875	0		4.49588232421875	-0.44454345703125	0		5.56263818359375	0.13134536743164063	0		-0.17633425903320313	5.92625146484375	0		
-0.03496244430541992	-0.003917378902435303	0		0.39328909301757814	-2.45572021484375	0		-0.9564716186523438	0.2310098419189453	0		-0.7773384399414063	-2.7052021484375	0		1.356317138671875	-0.7428741455078125	0		3.25427783203125	-0.755072265625	0		4.499392578125	-0.4237790832519531	0		5.577072265625	0.1390180206298828	0		-0.1106755142211914	5.9536923828125	0		
0.01535385799407959	-3.6434298753738404E-4	0		0.443577880859375	-2.45117333984375	0		-0.8751591796875	0.23337600708007813	0		-0.7880325317382812	-2.697245849609375	0		1.3565985107421874	-0.7430182495117188	0		3.224482421875	-0.7670491943359375	0		4.491603515625	-0.43591220092773436	0		5.55837255859375	0.13993777465820312	0		-0.14242953491210938	5.93377490234375	0		
-0.04742886352539062	0.0019331990480422974	0		0.40972830200195315	-2.4550673828125	0		-0.8899725341796875	0.23037397766113282	0		-0.7278674926757812	-2.69873291015625	0		1.407830810546875	-0.7374713745117187	0		3.218728759765625	-0.7591555786132812	0		4.50479638671875	-0.43715298461914065	0		5.56353173828125	0.13273448181152345	0		-0.14216624450683593	5.93266796875	0		
0.012655899047851563	-0.0035476300716400146	0		0.43579141235351565	-2.460332763671875	0		-0.8848780517578125	0.2262561492919922	0		-0.7938046875	-2.703393310546875	0		1.4109617919921875	-0.7345973510742188	0		3.2118271484375	-0.7612333374023438	0		4.4919189453125	-0.436201904296875	0		5.5686962890625	0.1395576934814453	0		-0.14198748779296874	5.93357568359375	0		
-0.04726920700073242	0.001760079026222229	0		0.4098471069335938	-2.455248291015625	0		-0.8848350219726563	0.22618260192871092	0		-0.7558038940429688	-2.70671337890625	0		1.345018310546875	-0.7312612915039063	0		3.231952880859375	-0.7474673461914062	0		4.4959970703125	-0.43034039306640626	0		5.56873876953125	0.13943560791015625	0		-0.21097772216796876	5.92194287109375	0		
0.007699693202972412	3.361690044403076E-4	0		0.42076882934570314	-2.46139013671875	0		-0.9558297119140625	0.2305797882080078	0		-0.7877857666015625	-2.697569580078125	0		1.3629573974609375	-0.7364544677734375	0		3.21486669921875	-0.7564459228515625	0		4.50001025390625	-0.4244620666503906	0		5.56871630859375	0.1393318328857422	0		-0.14189349365234374	5.93242919921875	0		
0.015620591163635254	-7.731069922447205E-4	0		0.44173406982421876	-2.4535859375	0		-0.8899022216796875	0.23009999084472657	0		-0.7149201049804688	-2.705095703125	0		1.4169381103515626	-0.72786962890625	0		3.2477763671875	-0.7587350463867187	0		4.4958974609375	-0.430517333984375	0		5.56359912109375	0.13227597045898437	0		-0.14193292236328126	5.93237255859375	0		
0.007522596836090088	2.305369973182678E-4	0		0.4375850524902344	-2.4586103515625	0		-0.8900057373046875	0.23005621337890625	0		-0.7920169677734376	-2.701640869140625	0		1.416829833984375	-0.7279246826171875	0		3.224662109375	-0.75964990234375	0		4.49579150390625	-0.4305865478515625	0		5.56854052734375	0.13916798400878908	0		-0.1420019989013672	5.9333251953125	0		
0.007400747776031494	1.9020399451255798E-4	0		0.42850439453125	-2.45059423828125	0		-0.8901265869140625	0.23001986694335938	0		-0.7301456298828125	-2.701080078125	0		1.413685302734375	-0.7309517822265625	0		3.2315498046875	-0.75775	0		4.49566845703125	-0.4306459350585938	0		5.55841943359375	0.13916783142089845	0		-0.1771356964111328	5.9275126953125	0		
